<svg width="196" height="56" viewBox="0 0 196 56" fill="none" xmlns="http://www.w3.org/2000/svg">
<path d="M0.890137 55.2636C64.2171 38.7825 129.966 33.613 195.098 39.9943C181.343 37.0212 167.473 34.7885 153.425 33.9706C151.055 29.6988 148.441 25.2777 144.216 22.7908C139.991 20.304 133.74 20.5803 131.065 24.6864C131.41 21.7103 131.146 18.6953 130.288 15.8244C129.429 12.9535 127.995 10.2867 126.073 7.98596C124.15 5.6852 121.779 3.79852 119.103 2.4405C116.427 1.08248 113.503 0.281463 110.507 0.0861089C107.512 -0.109245 104.508 0.305136 101.678 1.30409C98.8479 2.30304 96.2508 3.8657 94.0445 5.89718C91.8382 7.92865 90.0686 10.3865 88.8433 13.1215C87.618 15.8565 86.9626 18.8116 86.9168 21.8072C81.9 13.3021 74.2974 5.92997 64.8841 2.81864C55.4708 -0.292695 44.0641 1.7631 37.7516 9.34525C31.9541 16.2808 31.3395 26.0845 31.6274 35.1201C27.8787 33.9043 22.729 36.1149 21.0014 39.6517C20.337 41.0167 20.0435 42.5807 19.1354 43.8075C18.3159 44.9128 17.081 45.6312 15.8795 46.3165C10.6523 49.2897 6.10622 52.2905 0.890137 55.2636Z" fill="white"/>
</svg>
