<svg width="149" height="67" viewBox="0 0 149 67" fill="none" xmlns="http://www.w3.org/2000/svg">
<path d="M0.567627 66.5216C47.8122 44.9447 97.5429 29.266 148.634 19.8406C138.113 20.9458 127.719 21.62 117.176 22.7198C113.444 14.9829 109.424 6.41707 101.777 2.42152C94.579 -1.34192 85.3429 -0.341648 78.7646 4.41101C72.1864 9.16366 68.338 17.21 68.122 25.3006C66.2394 17.6576 59.1406 11.5289 51.3442 10.3463C43.5477 9.16366 35.1477 13.3692 31.7036 20.4485C29.2893 25.4111 29.2949 31.1861 29.3447 36.6793C28.0834 36.9391 26.886 37.4455 25.8217 38.1691C24.7573 38.8928 23.8469 39.8195 23.143 40.8959C22.4459 41.9487 21.9685 43.1309 21.7392 44.3718C21.5099 45.6128 21.5335 46.8872 21.8085 48.1189C14.1228 54.557 8.25886 60.0834 0.567627 66.5216Z" fill="white"/>
</svg>
