<svg width="170" height="90" viewBox="0 0 170 90" fill="none" xmlns="http://www.w3.org/2000/svg">
<path d="M0 90C25.4429 73.4898 54.9538 59.9931 82.7305 47.5411C110.693 35.011 140.418 26.93 170 18.8419C160.95 18.8419 152.158 19.446 143.33 21.4929C137.977 10.7538 127.529 3.32673 115.76 0.803651C110.871 -0.241119 105.626 -0.482769 101.001 1.40066C96.9328 3.05666 93.6713 6.21938 90.8023 9.53848C85.2355 15.9777 80.5181 24.2008 81.9954 32.5732C81.1961 31.6279 79.4975 31.7558 78.2557 31.6421C77.0119 31.5777 75.7658 31.7146 74.5659 32.0472C72.7138 32.3906 70.9627 33.1435 69.4417 34.2505C68.6935 34.8141 68.1035 35.56 67.7285 36.4164C67.3535 37.2727 67.2062 38.2108 67.3006 39.1403C63.7322 33.3194 54.6041 30.6898 47.8384 31.6492C41.0726 32.6087 35.1062 37.335 32.1872 43.5184C29.2683 49.7017 29.2825 57.0222 31.7233 63.369C20.9752 70.3626 10.0487 82.0612 0 90Z" fill="white"/>
</svg>
