<svg width="309" height="329" viewBox="0 0 309 329" fill="none" xmlns="http://www.w3.org/2000/svg">
<path d="M366.228 405.635C361.798 405.79 359.234 406.005 354.827 406.005H0C3.42756 390.686 7.79091 373.527 11.2074 358.208C6.31246 347.879 4.11417 317.866 25.0505 297.192C25.7925 296.446 26.5732 295.727 27.3817 295.02C27.6512 294.758 27.9336 294.51 28.2289 294.274C28.2289 294.086 28.2289 293.904 28.2732 293.721C28.8066 287.386 29.9469 281.116 31.6786 274.998C28.2178 269.427 27.1159 263.348 27.3817 256.811C28.1629 239.497 34.3183 222.853 44.9957 209.185C44.9957 208.903 44.9957 208.632 44.9957 208.339C45.3833 196.861 46.5627 185.449 49.7466 174.407C49.7466 174.407 46.1696 140.31 73.9776 100.94C100.285 63.7147 167.612 6.52256 174.789 0.465683L175.342 -0.0151144L175.403 -0.0593262C179.778 -0.0593262 182.901 2.20095 185.11 5.95886L192.065 9.40178L198.71 12.6789C198.82 14.5579 199.668 16.2323 200.714 17.8295C201.268 18.6639 201.822 19.4542 202.431 20.2389C202.464 20.2832 202.486 20.3329 202.519 20.3771C210.233 30.8772 215.343 43.1512 218.057 55.8949C218.716 58.9289 219.131 61.9131 220.925 64.4773C221.18 64.2673 221.601 64.2231 221.872 64.0186V64.0629C223.851 62.5209 226.087 61.3403 228.478 60.5757L228.738 60.4873C235.014 64.4 241.158 68.5023 247.172 72.7945C250.106 80.4264 248.728 88.7546 248.179 96.9004C247.626 105.19 248.257 113.546 248.866 121.852C249.032 123.979 249.348 126.4 251.081 127.638C251.114 127.782 251.157 127.924 251.208 128.063C251.33 128.572 251.463 129.08 251.612 129.572C255.267 143.045 259.282 156.404 263.656 169.649C264.038 170.832 264.431 172.009 264.841 173.192C264.91 173.174 264.98 173.163 265.051 173.158C278.562 170.749 291.63 164.742 304.172 159.127C318.447 170.334 329.516 183.006 340.961 197.076C343.232 196.784 345.945 196.784 347.75 198.182C348.858 199.049 349.489 200.392 350.38 201.47C351.092 202.315 351.974 203.001 352.969 203.484C353.964 203.967 355.05 204.235 356.156 204.272C359.245 204.433 362.306 204.932 365.287 205.758L365.364 224.548L365.73 296.595L366.228 405.635Z" fill="#FEC268"/>
<g style="mix-blend-mode:multiply">
<path d="M341 197.071C329.56 182.99 318.48 170.318 304.205 159.122C291.674 164.731 278.601 170.727 265.085 173.148C265.013 173.148 264.941 173.148 264.874 173.181C259.85 158.282 255.306 143.241 251.241 128.058C251.203 127.915 251.158 127.777 251.125 127.633C249.375 126.395 249.054 123.969 248.91 121.841C248.29 113.552 247.664 105.207 248.218 96.8899C248.772 88.7496 250.14 80.4158 247.21 72.7895C241.193 68.5121 235.043 64.4079 228.76 60.4768L228.5 60.5652C227.088 67.6113 225.82 74.6187 223.616 81.4658C226.938 86.7325 226.136 93.5851 228.018 99.537C229.225 103.323 231.529 106.721 232.747 110.49C234.15 114.886 234.046 119.622 232.454 123.952C232.764 124.151 233.079 124.328 233.389 124.505L232.775 124.35C234.275 125.82 234.868 127.611 236.02 129.374C237.232 131.111 237.846 133.194 237.769 135.309C237.675 136.414 237.337 137.453 237.288 138.553C237.272 139.863 237.459 141.168 237.841 142.421C240.883 154.303 243.919 166.185 246.95 178.066L248.932 183.742L304.82 169.285L338.774 202.167L341.022 197.071H341Z" fill="#C3A178"/>
</g>
<g style="mix-blend-mode:multiply">
<path d="M244.962 106.163C238.55 101.566 232.382 96.8626 227.016 91.0931C184.817 109.203 142.401 128.412 106.11 156.525C69.8191 184.638 20.5211 237.514 31.6897 274.988C28.2234 269.423 27.1159 263.344 27.3928 256.801C28.1652 239.487 34.3195 222.844 45.0012 209.18C45.0012 208.893 45.0012 208.627 45.0012 208.334C70.1403 173.032 121.277 128.694 223.422 81.8475C231.091 87.8712 238.373 94.0331 244.929 101.19C244.907 102.798 244.962 104.572 244.962 106.163Z" fill="#C3A178"/>
</g>
<g style="mix-blend-mode:multiply">
<path d="M172.02 205.808V165.621C172.02 165.621 170.359 143.781 189.186 134.834C208.012 125.886 206.971 149.268 206.971 149.268V190.495L172.02 205.808Z" fill="#C3A178"/>
</g>
<g style="mix-blend-mode:multiply">
<path d="M189.523 198.144V165.621C189.523 165.621 188.039 146.069 203.843 136.387C201.379 132.966 196.999 131.126 189.191 134.834C170.364 143.781 172.026 165.621 172.026 165.621V205.809L189.523 198.144Z" fill="#C3A178"/>
</g>
<g style="mix-blend-mode:multiply">
<path d="M148.47 214.646V171.689C148.47 171.689 148.271 155.597 138.165 161.526C126.283 168.501 125.983 189.888 125.983 189.888V226.638L148.47 214.646Z" fill="#C3A178"/>
</g>
<g style="mix-blend-mode:multiply">
<path d="M138.287 192.158C138.287 192.158 138.547 174.352 147.623 165.941C146.516 162.018 144.002 158.099 138.165 161.52C126.283 168.495 125.983 189.881 125.983 189.881V226.637L138.293 220.077L138.287 192.158Z" fill="#C3A178"/>
</g>
<g style="mix-blend-mode:multiply">
<path d="M109.355 233.109V196.597C109.355 196.597 108.558 183.063 97.9594 189.092C87.3611 195.121 88.2693 210.33 88.2693 210.33V248.351L109.355 233.109Z" fill="#C3A178"/>
</g>
<g style="mix-blend-mode:multiply">
<path d="M105.872 235.618V214.535C105.872 214.535 105.385 206.312 109.355 199.558V196.591C109.355 196.591 108.558 183.057 97.9594 189.086C87.3611 195.115 88.2693 210.324 88.2693 210.324V248.345L105.872 235.618Z" fill="#C3A178"/>
</g>
<g style="mix-blend-mode:multiply">
<path d="M76.857 255.064V224.012C76.857 224.012 77.084 212.18 69.6586 214.684C62.2331 217.187 62.366 234.7 62.366 234.7V265.647L76.857 255.064Z" fill="#C3A178"/>
</g>
<g style="mix-blend-mode:multiply">
<path d="M54.4034 269.621V248.809C54.4034 248.809 54.0601 240.73 49.7299 241.758C45.3998 242.785 45.8539 254.949 45.8539 254.949V277.701L54.4034 269.621Z" fill="#C3A178"/>
</g>
<g style="mix-blend-mode:multiply">
<path d="M277.56 264.277V335.711C270.86 336.186 256.657 337.794 244.464 339.259C233.002 340.618 223.312 341.851 223.312 341.851V277.695C223.312 277.695 222.846 244.023 250.893 241.664C254.62 241.276 258.386 241.515 262.033 242.371C278.529 246.532 277.56 264.277 277.56 264.277Z" fill="#C3A178"/>
</g>
<g style="mix-blend-mode:multiply">
<path d="M195.05 282.93V344.825L172.961 349.682L154.688 353.7V291.678C154.688 291.678 155.375 266.096 175.437 263.372C180.625 262.664 184.435 263.632 187.242 265.444C195.299 270.667 195.05 282.93 195.05 282.93Z" fill="#C3A178"/>
</g>
<g style="mix-blend-mode:multiply">
<path d="M130.314 303.857V355.733L124.106 357.612L101.813 364.376V316.374C101.813 316.374 99.9916 284.322 116.637 281.796C121.858 281.011 125.153 282.901 127.196 285.852C131.703 292.302 130.314 303.857 130.314 303.857Z" fill="#C3A178"/>
</g>
<g style="mix-blend-mode:multiply">
<path d="M87.9923 368.471V320.033C87.9923 320.033 90.5007 301.382 79.3321 303.2C68.1634 305.018 68.6175 326.631 68.6175 326.631V376.114L87.9923 368.471Z" fill="#C3A178"/>
</g>
<g style="mix-blend-mode:multiply">
<path d="M84.9137 369.682V325.709C84.9137 325.709 84.731 316.668 87.6159 309.787C86.6801 305.797 84.4375 302.349 79.31 303.156C68.1414 304.974 68.5955 326.587 68.5955 326.587V376.07L84.9137 369.682Z" fill="#C3A178"/>
</g>
<g style="mix-blend-mode:multiply">
<path d="M51.214 380.071V337.756C51.214 337.756 51.4133 318.646 45.8428 320.011C40.2724 321.376 40.4994 339.574 40.4994 339.574V384.166L51.214 380.071Z" fill="#C3A178"/>
</g>
<g style="mix-blend-mode:multiply">
<path d="M49.957 380.552V340.137C49.9486 336.565 50.2151 332.998 50.7544 329.466C50.2007 324.492 48.8496 319.276 45.8429 320.011C40.2724 321.376 40.4994 339.574 40.4994 339.574V384.166L49.957 380.552Z" fill="#C3A178"/>
</g>
<g style="mix-blend-mode:multiply">
<path d="M318.768 204.278L318.508 215.06L299.897 197.845C247.692 207.848 141.327 239.376 74.4704 272.467C-1.66673 310.157 11.2074 358.209 11.2074 358.209C6.31245 347.886 4.14738 317.822 25.056 297.192C25.8146 296.452 26.5898 295.733 27.3872 295.02C27.6641 294.761 27.9409 294.501 28.2344 294.263C47.3379 277.237 76.6853 261.409 109.355 244.023C171.793 210.771 302.871 183.742 302.871 183.742C302.871 183.742 317.556 202.968 318.768 204.278Z" fill="#C3A178"/>
</g>
<g style="mix-blend-mode:multiply">
<path d="M280.522 215.214C279.913 215.364 214.269 232.805 214.269 232.805V277.093H215.93V242.211L280.511 226.284L280.522 215.214Z" fill="#C3A178"/>
</g>
<g style="mix-blend-mode:multiply">
<path d="M201.655 237.508V247.063L152.723 262.377V280.542H150.934V253.358L201.655 237.508Z" fill="#C3A178"/>
</g>
<g style="mix-blend-mode:multiply">
<path d="M135.397 259.021L97.4056 274.815V300.104H99.5319V279.563L135.397 267.117V259.021Z" fill="#C3A178"/>
</g>
<g style="mix-blend-mode:multiply">
<path d="M57.3659 297.601V303.918L39.9291 316.087V310.284L57.3659 297.601Z" fill="#C3A178"/>
</g>
<g style="mix-blend-mode:multiply">
<path d="M306.83 220.641C311.332 223.227 315.213 226.521 318.978 230.091C319.787 229.632 320.512 228.952 321.321 228.494C315.684 222.155 310.169 215.733 303.939 209.975C300.681 210.687 297.464 211.578 294.304 212.644C294.304 213.296 293.895 213.495 293.895 214.153V224.62C297.998 224.62 302.821 221.508 306.83 220.641Z" fill="#C3A178"/>
</g>
<g style="mix-blend-mode:multiply">
<path d="M317.904 250.699C319.327 253.523 320.75 256.341 321.98 259.254C323.209 262.166 324.267 265.222 325.38 268.223C333.53 290.19 345.424 310.555 357.252 330.792C359.079 322.973 356.327 314.766 352.606 307.676C348.885 300.585 344.134 293.91 341.498 286.322C339.472 280.469 338.769 274.258 337.257 268.251C335.745 262.244 333.242 256.198 328.48 252.224C328.037 251.854 328.021 247.881 327.833 247.09C327.443 245.411 326.887 243.774 326.171 242.205C324.662 238.921 322.532 235.958 319.898 233.479C317.378 231.103 314.261 228.942 310.933 227.859C305.445 226.074 309.931 234.137 310.839 236.148C313.037 241.067 315.473 245.886 317.904 250.699Z" fill="#C3A178"/>
</g>
<g style="mix-blend-mode:multiply">
<path d="M177.95 13.5028C56.0757 96.6134 49.7743 174.391 49.7743 174.391C49.7743 174.391 46.1972 140.294 74.0053 100.935C100.313 63.7041 168.266 5.9814 175.442 -0.0699463L177.95 13.5028Z" fill="#C3A178"/>
</g>
<g style="mix-blend-mode:multiply">
<path d="M62.6816 188.091L61.923 187.621C62.0171 187.472 71.6021 172.319 96.8685 149.174C120.164 127.832 161.959 95.1101 228.782 60.3936L229.192 61.1838C101.514 127.506 63.0526 187.494 62.6816 188.091Z" fill="#C3A178"/>
</g>
<g style="mix-blend-mode:multiply">
<path d="M111.083 108.291L121.57 99.493V80.2337C121.57 80.2337 121.293 74.1879 116.326 76.4371C111.083 78.8134 111.083 85.5445 111.083 85.5445V108.291Z" fill="#C3A178"/>
</g>
<g style="mix-blend-mode:multiply">
<path d="M262.034 242.371C256.496 244.443 251.125 247.344 248.19 252.318C245.455 256.988 245.322 262.68 245.261 268.09C244.999 291.806 244.737 315.521 244.475 339.236C233.013 340.596 223.323 341.828 223.323 341.828V277.695C223.323 277.695 222.858 244.023 250.904 241.663C254.627 241.277 258.389 241.516 262.034 242.371Z" fill="#C3A178"/>
</g>
<g style="mix-blend-mode:multiply">
<path d="M187.247 265.444C185.097 266.21 183.21 267.574 181.81 269.373C179.628 272.137 178.543 275.613 177.718 279.05C175.47 288.533 174.994 298.331 174.567 308.074C173.958 321.935 173.423 335.798 172.961 349.666L154.688 353.683V291.678C154.688 291.678 155.375 266.096 175.437 263.372C180.63 262.664 184.44 263.632 187.247 265.444Z" fill="#C3A178"/>
</g>
<g style="mix-blend-mode:multiply">
<path d="M122.091 297.021C121.061 302.31 121.376 307.753 121.681 313.114C122.489 327.151 123.298 341.182 124.106 355.208C124.173 356.008 124.173 356.812 124.106 357.612L101.813 364.376V316.374C101.813 316.374 99.9916 284.322 116.637 281.796C121.858 281.011 125.153 282.901 127.196 285.852C126.476 286.958 125.59 287.98 124.981 289.013C123.59 291.509 122.614 294.213 122.091 297.021Z" fill="#C3A178"/>
</g>
<g style="mix-blend-mode:multiply">
<path d="M304.266 163.233C309.851 168.06 315.109 173.249 320.008 178.768C326.099 185.626 331.747 193.098 339.389 198.193C338.843 199.444 338.624 200.813 338.752 202.172C327.273 191.357 315.894 180.52 304.82 169.285C304.389 167.298 304.203 165.265 304.266 163.233Z" fill="#ECD2AA"/>
</g>
<g style="mix-blend-mode:multiply">
<path d="M221.894 64.058C221.7 64.5559 221.402 65.0069 221.02 65.3813C220.638 65.7557 220.181 66.0449 219.679 66.2299C218.67 66.5947 217.615 66.8179 216.545 66.8931C214.211 61.9229 211.513 57.1314 208.472 52.5577C207.768 51.354 206.837 50.2975 205.731 49.4464C203.206 47.7443 199.739 48.308 196.976 47.0258C197.314 42.124 196.329 37.1945 194.717 32.5524C193.964 30.4081 193.084 28.3026 192.137 26.2357C191.672 25.2189 191.192 24.2131 190.697 23.2184C190.359 22.5276 189.08 20.8365 189.147 20.107C189.263 18.637 193.322 19.582 194.512 19.6594L201.456 20.1512C201.788 20.1512 202.115 20.1955 202.436 20.2397C202.475 20.2839 202.503 20.3281 202.536 20.3723C210.238 30.8723 215.349 43.1574 218.068 55.8901C218.721 58.9351 219.286 62.1293 221.08 64.6936C221.351 64.467 221.617 64.257 221.894 64.058Z" fill="#C3A178"/>
</g>
<g style="mix-blend-mode:multiply">
<path d="M178.205 15.2549C174.334 17.3337 170.574 19.6137 166.942 22.0854C163.459 24.4673 159.744 26.6999 156.737 29.6731C157.408 29.3321 158.13 29.1008 158.875 28.9879C159.248 28.9351 159.628 28.9717 159.985 29.0947C160.341 29.2177 160.663 29.4235 160.923 29.6952C161.134 29.9439 161.278 30.2479 161.477 30.491C162.297 31.3421 163.72 30.9 164.799 30.4026C164.945 31.5569 165.521 32.6141 166.413 33.363C167.305 34.1119 168.447 34.4973 169.611 34.4424C170.946 34.3263 172.38 33.641 173.532 34.3263C174.346 34.8126 174.639 35.8184 175.337 36.4816C176.821 37.9461 178.476 36.9237 180.193 37.2387C182.275 37.6255 182.53 40.0295 182.33 41.7261C182.225 42.5827 182.109 43.5111 182.541 44.2571C182.927 44.7734 183.399 45.2201 183.936 45.5779C185.824 47.1695 186.771 50.104 187.53 52.3643C188.466 55.1275 189.235 57.968 190.055 60.7809C191.666 66.3073 193.488 71.8999 196.976 76.5586C191.749 56.1443 184.662 35.321 178.205 15.2549Z" fill="#FEF1CB"/>
</g>
<g style="mix-blend-mode:multiply">
<path d="M88.2305 278.607L63.2908 294.645V300.105V322.437L64.52 321.679L64.808 299.254L88.2305 286.123V278.607Z" fill="#C3A178"/>
</g>
<g style="mix-blend-mode:multiply">
<path d="M198.278 19.2169C193.117 18.6201 188.178 16.8516 183.294 15.0887C181.555 14.4698 179.822 13.8435 178.094 13.2098C177.33 8.83844 176.361 4.32894 175.387 -0.0534445L175.448 -0.0976562C179.822 -0.0976562 182.945 2.16262 185.154 5.92053L192.109 9.36344C192.172 9.57581 192.251 9.78281 192.347 9.98239C192.721 10.4939 193.176 10.9417 193.693 11.3087C193.95 11.4964 194.153 11.7486 194.281 12.0397C194.41 12.3308 194.459 12.6505 194.424 12.9666C194.313 12.903 194.188 12.8656 194.06 12.8572C193.933 12.8488 193.804 12.8696 193.686 12.9181C193.567 12.9666 193.461 13.0415 193.376 13.1371C193.291 13.2326 193.229 13.3463 193.194 13.4695C193.145 13.7229 193.171 13.9851 193.27 14.2237C193.368 14.4624 193.535 14.667 193.748 14.8124C194.184 15.0997 194.684 15.2726 195.205 15.3153C195.716 15.3663 196.221 15.4719 196.711 15.6303C196.417 16.9787 197.397 18.2166 198.278 19.2169Z" fill="#FEE1B4"/>
</g>
<g style="mix-blend-mode:multiply">
<path d="M138.01 147.312C121.723 124.294 107.853 99.6645 96.6194 73.8116C87.793 83.317 79.8747 92.6012 74.0052 100.924C46.1972 140.283 49.7743 174.38 49.7743 174.38C46.5959 185.433 45.4109 196.834 45.0233 208.323C45.0233 208.605 45.0233 208.876 45.0233 209.168C34.3354 222.834 28.1771 239.482 27.4038 256.8C27.1269 263.343 28.2344 269.422 31.7007 274.987C29.9614 281.106 28.8191 287.378 28.2897 293.716C28.2897 293.898 28.2897 294.075 28.2454 294.269C27.9575 294.512 27.6917 294.76 27.3982 295.02C26.5861 295.72 25.8091 296.444 25.0671 297.192C4.14735 317.822 6.31242 347.885 11.2073 358.208C7.79086 373.527 3.42197 390.687 0.00549316 406.006H354.827C359.256 406.006 361.82 405.79 366.228 405.636L365.779 304.901C307.085 289.378 251.817 260.773 205.615 221.409C180.084 199.608 157.374 174.718 138.01 147.312Z" fill="#FDF1DA"/>
</g>
</svg>
