<svg width="502" height="329" viewBox="0 0 502 329" fill="none" xmlns="http://www.w3.org/2000/svg">
<path opacity="0.4" d="M686.779 -94.0182C570.726 -90.0182 455.526 -72.6461 343.47 -42.2474C312.092 -33.7258 281.037 -24.18 250.305 -13.6099C243.074 -11.1286 238.295 -3.91116 240.416 3.77598C242.348 10.8 250.571 16.1439 257.836 13.6516C365.115 -23.1539 476.624 -47.9285 589.523 -59.2299C621.853 -62.4683 654.272 -64.642 686.779 -65.751C694.42 -66.0162 700.938 -72.0565 700.938 -79.8818C700.932 -87.3369 694.448 -94.2835 686.779 -94.0182Z" fill="white"/>
<path opacity="0.4" d="M583.123 59.935C462.117 30.358 334.594 29.4572 213.08 56.8292C178.997 64.5163 145.465 74.4581 112.706 86.5886C107.396 88.5504 103.785 93.6789 105.38 99.465C106.787 104.566 112.944 108.755 118.282 106.776C232.565 64.5053 356.046 49.3963 477.206 62.4108C511.01 66.0891 544.531 72.008 577.547 80.1283C590.659 83.3336 596.257 63.1458 583.123 59.935Z" fill="white"/>
<path opacity="0.4" d="M575.657 123.665C455.14 109.68 333.078 117.744 215.459 147.461C182.213 155.874 149.428 166.01 117.239 177.829C108.441 181.056 112.256 195.231 121.143 191.965C266.311 138.651 422.034 120.272 575.657 138.321C579.627 138.785 582.961 134.624 582.999 130.993C583.044 126.655 579.572 124.124 575.657 123.665Z" fill="white"/>
<path opacity="0.4" d="M539.321 176.733C469.684 161.222 398.365 154.538 327.051 156.838C255.731 159.127 184.973 170.266 116.409 189.997C77.7517 201.177 39.9433 215.096 3.27186 231.649C-4.10374 234.964 2.29177 245.802 9.62309 242.497C73.6904 213.76 141.133 193.2 210.354 181.304C279.251 169.419 349.359 166.098 419.075 171.417C458.41 174.426 497.478 180.251 535.977 188.847C543.868 190.604 547.24 178.496 539.321 176.733Z" fill="white"/>
<path opacity="0.4" d="M554.14 232.063C410.566 212.551 263.353 224.533 125.07 268.115C85.9149 280.518 47.5706 295.346 10.2599 312.512C2.94575 315.863 1.14401 326.43 4.91907 332.882C9.309 340.383 17.9602 341.584 25.3029 338.219C151.338 280.49 290.258 251.39 428.834 252.547C468.096 252.809 507.303 255.558 546.218 260.778C554.182 261.857 562.212 258.856 564.55 250.375C566.459 243.438 562.169 233.149 554.14 232.063Z" fill="white"/>
</svg>
