<svg width="24" height="25" viewBox="0 0 24 25" fill="none" xmlns="http://www.w3.org/2000/svg">
<path fill-rule="evenodd" clip-rule="evenodd" d="M12.2471 17.7083C13.3272 17.7083 14.2027 18.6411 14.2027 19.7917C14.2027 20.9423 13.3272 21.875 12.2471 21.875C11.1671 21.875 10.2915 20.9423 10.2915 19.7917C10.2915 18.6411 11.1671 17.7083 12.2471 17.7083ZM12.2471 10.4167C13.3272 10.4167 14.2027 11.3494 14.2027 12.5C14.2027 13.6506 13.3272 14.5833 12.2471 14.5833C11.1671 14.5833 10.2915 13.6506 10.2915 12.5C10.2915 11.3494 11.1671 10.4167 12.2471 10.4167ZM12.2471 3.125C13.3272 3.125 14.2027 4.05774 14.2027 5.20833C14.2027 6.35893 13.3272 7.29167 12.2471 7.29167C11.1671 7.29167 10.2915 6.35893 10.2915 5.20833C10.2915 4.05774 11.1671 3.125 12.2471 3.125Z" fill="#6B7178"/>
</svg>
